HIERARCHY
ROOT Hip
{
	OFFSET 0.000000 0.000000 0.000000 
	CHANNELS 6 Xposition Yposition Zposition Xrotation Yrotation Zrotation
	JOINT LowerSpine
	{
		OFFSET 0.000000 8.345300 -5.129200 
		CHANNELS 3 Xrotation Yrotation Zrotation
		JOINT MiddleSpine
		{
			OFFSET 10.856900 0.000000 0.000000 
			CHANNELS 3 Xrotation Yrotation Zrotation
			JOINT Chest
			{
				OFFSET 15.298400 0.000000 0.000000 
				CHANNELS 3 Xrotation Yrotation Zrotation
				JOINT Neck
				{
					OFFSET 25.661800 -0.598600 0.000000 
					CHANNELS 3 Xrotation Yrotation Zrotation
					JOINT Head
					{
						OFFSET 8.882900 0.000000 0.000000 
						CHANNELS 3 Xrotation Yrotation Zrotation
						End Site
						{
							OFFSET 19.739901 0.000000 0.000000 
						}
					}
				}
				JOINT RClavicle
				{
					OFFSET 23.687799 0.000000 3.158400 
					CHANNELS 3 Xrotation Yrotation Zrotation
					JOINT RShoulder
					{
						OFFSET -15.594500 -3.948000 0.987000 
						CHANNELS 3 Xrotation Yrotation Zrotation
						JOINT RForearm
						{
							OFFSET -31.337000 0.000000 0.197400 
							CHANNELS 3 Xrotation Yrotation Zrotation
							JOINT RHand
							{
								OFFSET -26.402100 0.000000 0.000000 
								CHANNELS 3 Xrotation Yrotation Zrotation
								End Site
								{
									OFFSET -15.791900 -0.987000 0.000000 
								}
							}
						}
					}
				}
				JOINT LClavicle
				{
					OFFSET 23.687799 0.000000 -3.158400 
					CHANNELS 3 Xrotation Yrotation Zrotation
					JOINT LShoulder
					{
						OFFSET -15.594500 -3.948000 -0.987000 
						CHANNELS 3 Xrotation Yrotation Zrotation
						JOINT LForearm
						{
							OFFSET -31.337000 0.000000 -0.197400 
							CHANNELS 3 Xrotation Yrotation Zrotation
							JOINT LHand
							{
								OFFSET -26.402100 0.000000 0.000000 
								CHANNELS 3 Xrotation Yrotation Zrotation
								End Site
								{
									OFFSET -15.791900 -0.987000 0.000000 
								}
							}
						}
					}
				}
			}
		}
	}
	JOINT RThigh
	{
		OFFSET -8.882900 0.448100 0.000000 
		CHANNELS 3 Xrotation Yrotation Zrotation
		JOINT RShin
		{
			OFFSET 43.131599 0.000000 -0.493500 
			CHANNELS 3 Xrotation Yrotation Zrotation
			JOINT RFoot
			{
				OFFSET 0.000000 -44.725601 -0.404700 
				CHANNELS 3 Xrotation Yrotation Zrotation
				JOINT RToe
				{
					OFFSET 0.000000 -3.933200 12.195300 
					CHANNELS 3 Xrotation Yrotation Zrotation
					End Site
					{
						OFFSET 6.772500 0.000000 0.000000 
					}
				}
			}
		}
	}
	JOINT LThigh
	{
		OFFSET 8.882900 0.448100 0.000000 
		CHANNELS 3 Xrotation Yrotation Zrotation
		JOINT LShin
		{
			OFFSET 43.131599 0.000000 0.493500 
			CHANNELS 3 Xrotation Yrotation Zrotation
			JOINT LFoot
			{
				OFFSET 0.000000 -44.725601 0.404700 
				CHANNELS 3 Xrotation Yrotation Zrotation
				JOINT LToe
				{
					OFFSET 0.000000 -3.933200 -12.195300 
					CHANNELS 3 Xrotation Yrotation Zrotation
					End Site
					{
						OFFSET 6.772500 0.000000 0.000000 
					}
				}
			}
		}
	}
}
MOTION
Frames: 8
Frame Time: 0.016949
16.259329 92.520592 -12.641920 0.516881 5.940152 4.160932 -89.999992 -90.000000 0.000000 -0.125301 0.453006 0.427298 -0.433739 1.506002 1.433831 0.000000 0.000000 0.000000 0.000000 0.000000 0.000000 90.005417 0.092847 -91.249161 -63.722351 53.281052 -5.407552 7.717149 53.488949 -9.885033 0.000000 0.000000 0.000000 -90.003418 0.469017 -83.696838 48.441750 -30.131451 -4.494234 -2.192997 -22.593140 -6.351710 0.000000 0.000000 0.000000 18.644329 73.883110 -139.043900 88.973953 65.031143 90.579376 -0.408379 0.329916 0.107570 180.000000 90.000000 0.000000 136.335800 88.303391 124.387398 -89.835411 -18.019711 90.007553 2.898052 3.555194 -1.326894 185.084106 -90.000000 0.000000 
15.959681 92.590172 -12.660162 0.550348 5.888186 4.090109 -89.999992 -90.000000 0.000000 -0.133197 0.472246 0.471127 -0.460789 1.562673 1.564250 0.000000 0.000000 0.000000 0.000000 0.000000 0.000000 90.005737 0.097484 -91.311546 -68.627434 50.768681 -0.668150 6.313440 48.091839 -8.796156 0.000000 0.000000 0.000000 -89.999817 0.403284 -84.581039 49.222481 -34.081810 -6.136292 -2.212599 -22.755529 -6.359266 0.000000 0.000000 0.000000 22.165890 73.106552 -143.222595 88.946083 65.633293 90.604103 -0.664704 0.151476 0.051848 180.000000 90.000000 0.000000 138.949005 88.355659 122.587997 -89.851341 -16.346460 90.004547 2.204015 3.620187 -1.304283 185.505096 -90.000000 0.000000 
15.658234 92.671555 -12.626803 0.550252 5.983579 4.008697 -89.999992 -90.000000 0.000000 -0.137453 0.478256 0.526680 -0.475635 1.581297 1.744293 0.000000 0.000000 0.000000 0.000000 0.000000 0.000000 90.005722 0.097071 -91.305962 -69.772453 48.355160 0.463974 5.268577 43.154900 -8.048628 0.000000 0.000000 0.000000 -89.996803 0.322126 -85.671913 50.214199 -37.973480 -6.794766 -2.230341 -22.902170 -6.366149 0.000000 0.000000 0.000000 26.121710 72.382278 -146.961395 88.985443 64.774963 90.569237 -1.064372 -0.307313 -0.096443 180.000000 90.000000 0.000000 142.033798 88.411880 120.408798 -89.868027 -14.567990 90.001923 1.673307 3.117748 -1.099532 185.544205 -90.000000 0.000000 
15.409685 92.756538 -12.553744 0.545342 6.295850 4.018219 -89.999992 -90.000000 0.000000 -0.137081 0.474058 0.596154 -0.475989 1.570970 1.982163 0.000000 0.000000 0.000000 0.000000 0.000000 0.000000 90.005432 0.093002 -91.251198 -66.763222 46.172901 -2.395315 4.458367 38.674221 -7.517584 0.000000 0.000000 0.000000 -89.995247 0.234175 -86.853409 50.828522 -41.415951 -7.177181 -2.278130 -23.295580 -6.384898 0.000000 0.000000 0.000000 30.745430 71.669472 -150.759293 89.067528 62.793041 90.497612 -1.384014 -0.445995 -0.138800 180.000000 90.000000 0.000000 141.394501 88.405113 121.780296 -89.881668 -13.096750 90.000168 1.430868 1.865787 -0.639598 185.135498 -90.000000 0.000000 
15.221339 92.829216 -12.429886 0.476013 6.658472 4.103024 -89.999992 -90.000000 0.000000 -0.129803 0.464307 0.681900 -0.453719 1.541051 2.273209 0.000000 0.000000 0.000000 0.000000 0.000000 0.000000 90.004890 0.085060 -91.144279 -63.260090 43.706570 -5.912157 3.840441 34.825871 -7.147653 0.000000 0.000000 0.000000 -89.995468 0.151184 -87.968117 51.306389 -45.198910 -7.560208 -2.253673 -23.094530 -6.375265 0.000000 0.000000 0.000000 35.296959 70.930649 -154.170898 89.162857 60.108070 90.416588 -1.388480 -0.135661 -0.030445 180.000000 90.000000 0.000000 138.205994 88.329880 125.561203 -89.891548 -12.022730 89.999107 1.276651 0.201263 -0.070217 184.760193 -90.000000 0.000000 
14.982893 92.858498 -12.294127 0.343062 7.083583 4.084686 -89.999992 -90.000000 0.000000 -0.112582 0.451695 0.779044 -0.398604 1.499750 2.598598 0.000000 0.000000 0.000000 0.000000 0.000000 0.000000 90.004112 0.073371 -90.986923 -61.041119 40.744980 -8.222024 3.348516 31.477430 -6.878524 0.000000 0.000000 0.000000 -89.996857 0.082920 -88.885178 52.062420 -49.545940 -7.256586 -2.108400 -21.887899 -6.319688 0.000000 0.000000 0.000000 39.523491 70.319763 -156.941605 89.258400 56.904049 90.338371 -1.193199 0.243700 0.088802 180.000000 90.000000 0.000000 139.337296 88.323059 124.939003 -89.898903 -11.220130 89.998451 1.234881 -1.017022 0.333283 184.408096 -90.000000 0.000000 
14.567646 92.847481 -12.234168 0.316020 7.465671 3.862094 -89.999992 -90.000000 0.000000 -0.084412 0.437537 0.878356 -0.307101 1.453374 2.929896 0.000000 0.000000 0.000000 0.000000 0.000000 0.000000 90.003113 0.057504 -90.773376 -59.309929 37.479431 -10.043910 2.932940 28.446329 -6.670902 0.000000 0.000000 0.000000 -89.998573 0.033025 -89.555733 53.078270 -53.811359 -6.558599 -1.939466 -20.458500 -6.258667 0.000000 0.000000 0.000000 43.909889 70.063072 -159.582001 89.349007 53.272060 90.267738 -0.938523 0.295482 0.086653 180.000000 90.000000 0.000000 150.059998 88.483040 114.440300 -89.903358 -10.730050 89.998108 1.271712 -1.172421 0.400767 184.109207 -90.000000 0.000000 
14.044197 92.857063 -12.237110 0.444311 7.453890 3.536563 -89.999992 -90.000000 0.000000 -0.048519 0.422023 0.970736 -0.189409 1.403292 3.237359 0.000000 0.000000 0.000000 0.000000 0.000000 0.000000 90.001869 0.036375 -90.489090 -57.816219 34.047729 -11.660070 2.623555 26.069151 -6.529175 0.000000 0.000000 0.000000 -90.000076 -0.001627 -90.021606 53.992859 -58.015060 -6.446589 -1.815088 -19.388611 -6.216281 0.000000 0.000000 0.000000 48.423920 70.091988 -162.058395 89.436501 49.086861 90.203812 -0.716440 -0.270670 -0.108521 180.000000 90.000000 0.000000 170.552597 88.632317 94.017830 -89.907051 -10.324370 89.997864 1.007928 0.017233 0.014383 184.153305 -90.000000 0.000000 
